<svg id="Layer_1" data-name="Layer 1" xmlns="http://www.w3.org/2000/svg" viewBox="0 0 1000 1000"><defs><style>.cls-1{fill:#fff;}.cls-2{fill:#a44fed;}</style></defs><rect width="1000" height="1000"/><path class="cls-1" d="M407.011,531.082H387.34V478.347h18.915c11.122,0,16.721,6.054,16.721,13.393,0,6.657-4.161,10.516-9.231,12.181,5.75.983,10.441,6.506,10.441,13.013C424.186,524.878,417.907,531.082,407.011,531.082Zm-1.362-47.061H394.225v17.1H405.8c6.431,0,10.138-3.177,10.138-8.549C415.939,487.351,412.383,484.021,405.649,484.021Zm.53,22.775H394.225v18.612h12.181c6.81,0,10.895-3.4,10.895-9.155C417.3,510.427,412.913,506.8,406.179,506.8Z"/><path class="cls-1" d="M468.6,531.082h-6.884v-6.129c-2.649,4.313-7.718,6.735-13.241,6.735-9.533,0-17.024-5.9-17.024-17.781V489.621h6.81V513c0,8.4,4.615,12.711,11.576,12.711,7.112,0,11.879-4.388,11.879-13.317V489.621H468.6Z"/><path class="cls-1" d="M477.232,478.2a4.616,4.616,0,1,1,4.691,4.69A4.62,4.62,0,0,1,477.232,478.2Zm1.135,11.424h6.885v41.461h-6.885Z"/><path class="cls-1" d="M495.089,475.094h6.885v55.988h-6.885Z"/><path class="cls-1" d="M528.985,488.94c6.506,0,12.484,3.329,15.359,8.1V475.094H551.3v55.988h-6.961v-7.793c-2.5,4.616-7.869,8.474-15.435,8.474-11.122,0-19.671-8.7-19.671-21.563C509.238,497.263,517.787,488.94,528.985,488.94Zm1.286,5.977c-7.566,0-14,5.523-14,15.283s6.431,15.511,14,15.511,14.073-5.675,14.073-15.436C544.344,500.667,537.837,494.917,530.271,494.917Z"/><path class="cls-1" d="M567.954,531.082h-6.885V489.621h6.885v6.733c2.345-4.614,6.81-7.49,13.392-7.49v7.112H579.53c-6.582,0-11.576,2.951-11.576,12.56Z"/><path class="cls-1" d="M594.285,478.347v47.136h18.461v5.6H587.4V478.347Z"/><path class="cls-1" d="M635.3,488.94c7.717,0,13.012,3.934,15.434,8.246v-7.565h6.961v41.461H650.73v-7.717c-2.5,4.464-7.868,8.4-15.51,8.4-11.047,0-19.6-8.7-19.6-21.563C615.624,497.263,624.173,488.94,635.3,488.94Zm1.362,5.977c-7.567,0-14,5.523-14,15.283s6.431,15.511,14,15.511,14.072-5.675,14.072-15.436C650.73,500.667,644.223,494.917,636.658,494.917Z"/><path class="cls-1" d="M689.851,488.94c11.2,0,19.671,8.323,19.671,21.26,0,12.862-8.55,21.563-19.671,21.563-7.567,0-12.939-3.783-15.511-8.323v7.642h-6.884V475.094h6.884v22.244C676.989,492.723,682.512,488.94,689.851,488.94Zm-1.438,5.977c-7.491,0-14.073,5.75-14.073,15.358,0,9.761,6.582,15.436,14.073,15.436,7.642,0,14.072-5.751,14.072-15.511S696.055,494.917,688.413,494.917Z"/><path class="cls-2" d="M364.8,512.153a15.7,15.7,0,0,1-15.682,15.682H318.992l4.278-6.918h25.845a8.648,8.648,0,0,0,2.8-.458,8.767,8.767,0,0,0-2.8-17.074H326.442L308.573,532.28h42.4l-4.278,6.914H296.167l32.688-52.86h8.131l-6.266,10.138h18.395a8.767,8.767,0,1,0,0-17.533H302.888l14.353,23.214H309.11l-18.632-30.127h58.637a15.671,15.671,0,0,1,9.808,27.9A15.657,15.657,0,0,1,364.8,512.153Z"/><path class="cls-1" d="M387.6,469.3v-8.4h3.276a4.59,4.59,0,0,1,1.884.348,2.668,2.668,0,0,1,1.2,1.008,3.141,3.141,0,0,1,0,3.138,2.718,2.718,0,0,1-1.2,1.008,4.554,4.554,0,0,1-1.884.354h-2.616l.54-.564V469.3Zm1.2-2.988-.54-.6h2.58a2.675,2.675,0,0,0,1.746-.493,1.927,1.927,0,0,0,0-2.783,2.68,2.68,0,0,0-1.746-.492h-2.58l.54-.6Z"/><path class="cls-1" d="M400.055,469.4a4.837,4.837,0,0,1-1.782-.324,4.276,4.276,0,0,1-1.422-.906,4.187,4.187,0,0,1-.936-1.363,4.486,4.486,0,0,1,0-3.407,4.2,4.2,0,0,1,.936-1.363,4.272,4.272,0,0,1,1.416-.905,4.783,4.783,0,0,1,1.788-.325,4.874,4.874,0,0,1,1.776.318,4.216,4.216,0,0,1,1.416.9,4.086,4.086,0,0,1,.93,1.367,4.614,4.614,0,0,1,0,3.427,4.092,4.092,0,0,1-.93,1.361,4.182,4.182,0,0,1-1.416.9A4.833,4.833,0,0,1,400.055,469.4Zm-.012-1.069a3.444,3.444,0,0,0,1.3-.239,3.069,3.069,0,0,0,1.032-.679,3.155,3.155,0,0,0,.684-1.025,3.317,3.317,0,0,0,.246-1.285,3.206,3.206,0,0,0-.93-2.3,3.023,3.023,0,0,0-1.032-.684,3.605,3.605,0,0,0-2.592,0,3.087,3.087,0,0,0-1.038.684,3.2,3.2,0,0,0-.69,1.026,3.245,3.245,0,0,0-.246,1.277,3.3,3.3,0,0,0,.246,1.285,3.123,3.123,0,0,0,1.728,1.7A3.411,3.411,0,0,0,400.043,468.33Z"/><path class="cls-1" d="M408.023,469.3l-2.808-8.4h1.236l2.58,7.752h-.624l2.676-7.752h1.1l2.616,7.752h-.6l2.616-7.752h1.14l-2.808,8.4h-1.26l-2.448-7.188h.324l-2.46,7.188Z"/><path class="cls-1" d="M420.623,468.259h4.9V469.3h-6.1v-8.4h5.928v1.044h-4.728Zm-.108-3.732h4.32v1.02h-4.32Z"/><path class="cls-1" d="M427.463,469.3v-8.4h3.276a4.59,4.59,0,0,1,1.884.348,2.668,2.668,0,0,1,1.2,1.008,3.141,3.141,0,0,1,0,3.138,2.681,2.681,0,0,1-1.2,1,4.607,4.607,0,0,1-1.884.347h-2.616l.54-.551V469.3Zm1.2-2.988-.54-.589h2.58a2.652,2.652,0,0,0,1.746-.5,1.934,1.934,0,0,0,0-2.789,2.68,2.68,0,0,0-1.746-.492h-2.58l.54-.6Zm4.416,2.988-2.136-3.048h1.284l2.16,3.048Z"/><path class="cls-1" d="M437.387,468.259h4.9V469.3h-6.1v-8.4h5.929v1.044h-4.728Zm-.108-3.732H441.6v1.02h-4.319Z"/><path class="cls-1" d="M444.226,469.3v-8.4h3.54a5.115,5.115,0,0,1,2.371.527,3.916,3.916,0,0,1,1.6,1.477,4.515,4.515,0,0,1,0,4.392,3.913,3.913,0,0,1-1.6,1.476,5.115,5.115,0,0,1-2.371.528Zm1.2-1.044H447.7a3.871,3.871,0,0,0,1.806-.4,2.877,2.877,0,0,0,1.181-1.11,3.456,3.456,0,0,0,0-3.306,2.876,2.876,0,0,0-1.181-1.1,3.859,3.859,0,0,0-1.806-.4h-2.268Z"/><path class="cls-1" d="M457.367,469.3v-8.4h3.768a3.674,3.674,0,0,1,2.232.582,1.877,1.877,0,0,1,.78,1.59,2.057,2.057,0,0,1-.306,1.151,2.024,2.024,0,0,1-.822.721,2.509,2.509,0,0,1-1.116.252l.216-.36a3.033,3.033,0,0,1,1.272.252,2.058,2.058,0,0,1,.876.737,2.129,2.129,0,0,1,.324,1.206,1.954,1.954,0,0,1-.81,1.674,4.049,4.049,0,0,1-2.406.595Zm1.2-.973h2.76a2.842,2.842,0,0,0,1.524-.336,1.16,1.16,0,0,0,.528-1.055,1.176,1.176,0,0,0-.528-1.069,2.861,2.861,0,0,0-1.524-.336h-2.868v-.972h2.568a2.538,2.538,0,0,0,1.416-.336,1.259,1.259,0,0,0,0-2.015,2.538,2.538,0,0,0-1.416-.337h-2.46Z"/><path class="cls-1" d="M468.3,469.3v-3.216l.276.743-3.612-5.927h1.283l3.037,5h-.7l3.048-5h1.188l-3.6,5.927.264-.743V469.3Z"/></svg>